<?xml version="1.0" standalone="no"?>
<!DOCTYPE svg PUBLIC "-//W3C//DTD SVG 20010904//EN"
 "http://www.w3.org/TR/2001/REC-SVG-20010904/DTD/svg10.dtd">
<svg version="1.0" xmlns="http://www.w3.org/2000/svg"
 width="747.000000pt" height="978.000000pt" viewBox="0 0 747.000000 978.000000"
 preserveAspectRatio="xMidYMid meet">

<g transform="translate(0.000000,978.000000) scale(0.100000,-0.100000)"
fill="#000000" stroke="none">
<path d="M4088 5603 l-3 -2018 -28 -90 c-92 -293 -297 -496 -582 -577 -114
-32 -306 -32 -419 0 -234 67 -429 227 -531 437 -56 115 -75 186 -82 310 -14
243 65 451 237 626 133 134 284 211 470 240 86 13 229 6 308 -15 l52 -14 0
503 0 503 -97 7 c-345 26 -655 -33 -958 -185 -351 -175 -624 -447 -804 -800
-358 -705 -219 -1553 345 -2100 123 -119 196 -177 316 -252 182 -113 393 -196
610 -240 98 -20 143 -23 343 -23 200 0 245 3 343 23 168 34 310 83 467 162
474 238 812 660 945 1178 49 193 50 216 50 1355 0 587 3 1067 6 1067 3 0 54
-30 112 -67 233 -146 535 -266 797 -317 129 -25 317 -46 408 -46 l47 0 0 490
c0 385 -3 490 -12 490 -74 2 -230 25 -312 46 -527 139 -916 546 -1015 1064
-11 58 -23 140 -26 183 l-7 77 -489 0 -489 0 -2 -2017z"/>
</g>
</svg>
